<?xml version="1.0"?>
<svg id="Layer_1" xmlns="http://www.w3.org/2000/svg" version="1.1" viewBox="0 0 220 170">
  
  <defs>
    
  </defs>
  <path class="st0" d="M4,150h60c25.66,2.13,6.1-25.41,2.1-39.41,14.56,2.36,14.99,3.64,34.26,3.41-1.8-10.37,9.64-44.74,22.27-47.74,8-6,4.59-12.72-2.03-21.69-26.12-31.69-2.4,2.09,4.17-8.72,3-4.93,11.52,2.55,15.22,14.14,8.54,26.76-8,22-20,24-10,2-14,10-10,16,6,8,30,8,40,2,8-4,10,4,0,8h-60c-14,0-14,14,0,14h60c14,0,14,14,0,14h-60c-12,0-12,14,2,14h48c43.66.71,18,8,76,8"></path>
</svg>