<?xml version="1.0"?>

<svg version="1.0" id="Layer_1" xmlns="http://www.w3.org/2000/svg" xmlns:xlink="http://www.w3.org/1999/xlink" x="0px" y="0px" viewBox="0 0 1074.54 350" style="enable-background:new 0 0 1074.54 350;" xml:space="preserve">
<g transform="translate(0.000000,350.000000) scale(0.100000,-0.100000)">
&#x9;<path d="M6601.94,2315.57c-11,8-30,25-42,37c-13,13-42,26-70,30c-26,5-62,11-78,14c-23,5-35,2-49-14c-11-12-27-21-37-21&#xA;&#x9;&#x9;c-29,0-67-55-74-108c-3-26-10-54-16-62c-34-54-33-111,2-133c15-10,19-24,19-74c0-42-5-66-16-77c-14-14-21-13-82,18&#xA;&#x9;&#x9;c-37,19-93,44-124,56c-41,15-79,41-133,92c-52,48-79,68-86,61s-5-44,6-114c18-109,12-159-19-159c-48,0-223,323-286,530&#xA;&#x9;&#x9;c-30,95-37,109-79,147c-48,44-49,51-7,32c21-10,29-7,60,17c19,16,38,41,41,56c4,15,13,32,22,36c9,6,16,27,17,59c3,54,32,113,54,113&#xA;&#x9;&#x9;c10,0,12-5,6-17c-5-10-9-54-9-98c-1-44-7-93-13-108c-20-46-14-89,22-163c38-80,166-287,174-280c2,3-25,51-61,108&#xA;&#x9;&#x9;c-76,121-110,187-127,244c-10,35-10,49,4,90c9,27,16,78,15,114s1,78,2,94c5,40-14,43-44,7c-14-17-28-44-32-61c-6-28-9-30-23-17&#xA;&#x9;&#x9;c-34,28-54,28-94,0c-49-34-91-111-82-150c4-15,31-50,59-78c48-46,54-59,88-165c38-122,106-270,176-384c24-38,47-80,52-94&#xA;&#x9;&#x9;c6-14,30-58,54-96c115-185,130-260,122-605c-3-167-10-256-25-341c-29-163-40-192-77-202c-16-5-255-7-530-4&#xA;&#x9;&#x9;c-328.8-71.04-4546.64,44.15-4492.64,39.15c52-4,4374.64-51.15,4610.64-52.15c414-1,428,0,447,19c11,11,20,27,20,36&#xA;&#x9;&#x9;c0,27,52,113,72,120c10,3,69-4,130-16c104-21,157-22,216-4c16,4,22,2,22-8c0-68,173-65,247,4l23,21v-35c0-42,8-68,21-68&#xA;&#x9;&#x9;s53,85,79,165c29,91,30,275,2,411c-16,80-17,96-4,130c21,61,27,175,9,198c-18,25-44,15-58-21c-9-21-8-50,4-123c17-101,11-128-20-97&#xA;&#x9;&#x9;c-14,14-17,35-14,139l2,123l40,61l40,61l71,7c62,6,74,4,92-13c60-55,168-72,234-37c19,10,40,15,47,12c7-2,22,2,33,10&#xA;&#x9;&#x9;c19,13,21,12,27-26c8-45,19-57,40-40c12,10,15,9,15-4c0-9-7-16-15-16c-21,0-19-35,5-112c25-80,25-95-2-254c-21-123-21-139-9-240&#xA;&#x9;&#x9;c7-60,13-117,13-127c-1-45-13-47-238-47c-117,0-224-4-238-10c-29-11-34-35-10-44c47-18,330,2,423,30c64,19,81,3,81-80&#xA;&#x9;&#x9;c0-34,4-67,9-75c14-22,36-6,49,37c7,21,21,51,32,65c20,25,21,25,57,11c20-9,86-19,147-24s136-12,168-16c75-9,157,2,197,27&#xA;&#x9;&#x9;c18,11,31,22,28,25c-2,3-21-5-42-17c-45-27-111-29-320-10c-154,13-229,33-152,39c21,2,69-4,107-12c92-21,169-20,260,4&#xA;&#x9;&#x9;c135,35,166,24,177-68c3-27,9-55,13-62c13-22,30,0,30,38c0,21,7,47,15,59c14,20,17,21,43,7c19-10,63-14,152-14c145,1,249,17,341,54&#xA;&#x9;&#x9;c73,29,87,31,123,15c43-20,47-73,11-140c-13-26-21-49-18-53c8-8,663-5,873,4c91,4-66,5-347,2c-282-3-513-2-513,2c0,3,9,23,20,43&#xA;&#x9;&#x9;c28,53,26,108-5,138c-13,14-33,25-45,25c-20,0-20,1,4,37c25,38,25,39,29,343c4,242,8,318,21,370c19,73,51,128,103,173&#xA;&#x9;&#x9;c7.5,75.35,76.61,165.45,129.5,216.43c8,25,51.5,86.57,77.5,137.57c44,87,110,247,135,325c9,28,21,40,50,51c64,26,101,64,101,103&#xA;&#x9;&#x9;c0,41-42,129-66,138c-9,4-31,4-49,0c-31-6-32-5-38,37c-6,43-30,79-44,65c-5-4-11-40-15-79c-16-180-24-212-75-309&#xA;&#x9;&#x9;c-57-108-184-311-248-396l-45-59l-64-7c-85-8-134-29-142-60c-8-32-41-63-54-50c-11,11,22,108,45,131c21,20,30,63,18,82&#xA;&#x9;&#x9;c-6,9-8,40-5,69c6,67-15,172-35,172c-8,0-23-5-33-10c-14-7-32-5-70,10c-152,60-257-14-231-164c7-41,7-63,0-72c-13-16-2-79,17-95&#xA;&#x9;&#x9;c16-13,47-79,58-122l7-28l-31,23c-20,15-45,23-71,23c-35,0-46-7-84-48c-44-47-85-62-85-31c0,8-14,29-30,46c-24,24-37,29-61,26&#xA;&#x9;&#x9;c-36-6-42,5-84,132c-45,138-83,195-145,218c-35,13-173-1-204-21c-40-27-73-78-92-142c-14-49-16-84-11-188c4-98,3-126-6-119&#xA;&#x9;&#x9;c-7,5-27,13-45,17c-47,10-59,42-76,209c-17,173-31,209-97,244c-46,24-64,25-163,3c-67-15-94-35-117-85c-22-52-44-255-36-343&#xA;&#x9;&#x9;c6-61,6-63-17-63c-13,0-38-3-56-7c-31-6-33-5-27,17c3,13,2,31-3,41c-12,22-92,49-147,49c-38,0-43,2-43,23c0,35,28,85,51,92&#xA;&#x9;&#x9;c23,8,53,70,45,92c-3,8,1,28,10,45c21,40,20,94,0,117c-19,21-21,47-3,55 M9141.44,2738c-4-38-2-58,5-58c6,0,9-6,6-12&#xA;&#x9;&#x9;c-2-7,7-34,21-60c22-41,30-48,56-48c38,0,25-14-28-33c-38-13-41-17-81-123c-88-231-148-349-206-401c-20-18-56-72-81-120&#xA;&#x9;&#x9;c-25-49-61-113-81-144c-63-99-69-137-74-484c-5-330-8-348-56-380c-35-23-221-43-414-46c-95-1-175,0-178,3c-4,3-6,156-5,339&#xA;&#x9;&#x9;c0,184-5,393-10,466c-11,136-5,175,27,187c25,10,33-3,33-53c0-42,3-50,23-56c46-15,77-13,77,4c1,14,2,14,11-1c5-10,16-18,24-18&#xA;&#x9;&#x9;c19,0,26,100,8,120c-12,13-13,6-7-49c5-47,4-62-5-57c-6,4-11,19-11,34s-4,34-10,42c-8,13-10,13-14,0c-3-8-7-28-9-45c-4-27-4-26-6,8&#xA;&#x9;&#x9;c-1,47-21,49-21,1c0-21-4-33-10-29c-5,3-10,22-10,41c0,43-17,45-23,2c-3-26-4-23-5,14c-2,33-7,50-19,57c-17,9-16,12,6,35&#xA;&#x9;&#x9;c19,20,34,26,68,26c40,0,45-3,79-50c20-28,43-55,52-61c13-8,10-9-13-4c-24,5-28,4-18-6s28-10,83-2c74,12,124,36,117,56&#xA;&#x9;&#x9;c-6,17-46,9-96-20l-43-25l-27,19c-16,13-27,31-29,51c-4,38-3,38,43,11c41-24,89-20,127,11c23,18,23,18,55-6l32-24l36,31&#xA;&#x9;&#x9;c27,24,39,29,48,20c13-13,47-15,47-2c0,5,14,11,30,15c44,8,74,39,65,66c-5,17,1,30,28,59c46,47,206,297,274,428&#xA;&#x9;&#x9;c40,78,53,113,53,146c0,24,5,57,10,73c9,25,15,72,20,149c1,17,3,15,17-9C9143.44,2804,9146.44,2782,9141.44,2738z M5498.44,2760&#xA;&#x9;&#x9;c-29-12-29-22,2-58c44-52,28-70-23-27c-32,26-42,30-42,16c0-4,18-21,40-36s40-32,40-36c0-19-50-8-79,17c-17,14-31,21-31,16&#xA;&#x9;&#x9;c0-6,14-22,30-35c35-30,37-37,11-37c-22,0-71,41-71,59c0,24,40,89,67,110c15,11,39,20,53,20&#xA;&#x9;&#x9;C5520.44,2769,5520.44,2769,5498.44,2760z M5533.44,2734c24-17,30-44,9-44c-13,0-36,21-51,48&#xA;&#x9;&#x9;C5481.44,2755,5506.44,2753,5533.44,2734z M9234.44,2741c10-6,26-29,36-52l19-41l-27-24c-28-24-77-33-77-14c0,6,3,10,8,10&#xA;&#x9;&#x9;c12,0,75,41,70,45c-2,3-22-4-43-15c-40-20-55-19-55,6c0,8,13,17,30,20c16,4,35,13,42,22c11,14,10,15-7,7c-11-4-35-10-53-13&#xA;&#x9;&#x9;c-32-4-33-3-22,17c6,12,21,26,33,31C9217.44,2751,9214.44,2751,9234.44,2741z M9273.44,2590c-12-11-34-19-48-19c-24,1-24,1,6,14&#xA;&#x9;&#x9;c17,8,37,21,44,30c9,11,16,13,18,6C9295.44,2615,9286.44,2601,9273.44,2590z M6457.49,2348.05c31-5,46.03,4.43,68.03-15.57&#xA;&#x9;&#x9;c17-16,30.93,2.52,32.93,1.52c2-2-7.89-7.45-14.89-15.45c-10-13,33.89-52.55,50.89-74.55c25-31,27-79,5-114c-15-24-15-24-11,21&#xA;&#x9;&#x9;c6,93-14,105-57,126c-27,12-41,14-58,6c-13-6-47-8-75-6c-47,5-54,3-77-22c-13-14-28-40-31-56c-8-35-21-37-29-4&#xA;&#x9;&#x9;c-14,55,36,164,70,151c7-2,22,7,35,20c17,18,30,23,44,19C6421.44,2381,6430.49,2352.05,6457.49,2348.05z M8379.44,2339&#xA;&#x9;&#x9;c47-18,61-20,83-10c14,6,27,10,28,9c1-2,7-24,14-50c12-52,14-101,4-136c-9-37-23-6-23,54c0,66-16,82-59,60c-19-10-56-16-100-16&#xA;&#x9;&#x9;c-38,0-77-3-86-6c-19-8-45-55-45-84c0-27-16-26-24,3c-9,36-7,117,5,138c16,30,70,59,111,59C8307.44,2360,8348.44,2350,8379.44,2339&#xA;&#x9;&#x9;z M6515.44,2270c11-7,6-10-20-10s-31,3-20,10c8,5,17,10,20,10S6507.44,2275,6515.44,2270z M6493.44,2254c76-8,85-20,78-107&#xA;&#x9;&#x9;c-5-65-50-186-87-239c-26-36-81-62-112-52c-54,16-107,105-107,178c0,12-9,27-20,34c-14,9-20,23-20,51c0,44,13,59,36,40&#xA;&#x9;&#x9;c18-15,28-6,44,43c15,50,45,71,90,63C6414.44,2262,6458.44,2257,6493.44,2254z M7122.44,2239c49-30,61-67,77-229&#xA;&#x9;&#x9;c8-77,21-153,29-169l15-29l-47-13c-25-6-56-21-67-31c-19-17-22-17-28-3c-10,28-6,49,14,75l20,25v-32c0-39,21-44,38-10&#xA;&#x9;&#x9;c19,38,23,80,12,132c-6,28-14,77-19,111c-14,101-36,123-101,104c-19-6-50-10-68-10c-29,0-32,2-22,19c5,11,10,33,10,50&#xA;&#x9;&#x9;c0,20,6,31,18,35C7033.44,2272,7085.44,2262,7122.44,2239z M8473.44,2172c3-76,11-98,28-71c4,7,10,7,16,1c14-14-1-61-23-73&#xA;&#x9;&#x9;c-11-5-19-17-19-26c0-32-40-99-69-116c-34-20-86-22-120-3c-25,14-81,91-81,111c0,7-7,19-16,26c-21,18-35,55-27,75c5,15,7,15,15,0&#xA;&#x9;&#x9;c14-26,28-9,28,35c0,45,21,94,45,103c9,3,49,6,88,6c40,0,79,5,87,10C8460.44,2273,8470.44,2258,8473.44,2172z M6935.44,2220&#xA;&#x9;&#x9;c-6-11-9-28-6-38c3-9-8-44-25-77c-23-45-35-59-52-60c-41,0-35-83,8-103c22-10,25-18,25-65c0-55-20-97-46-97c-30,0-36,49-24,200&#xA;&#x9;&#x9;c12,169,31,223,89,252C6945.44,2252,6951.44,2250,6935.44,2220z M7545.44,2231c0-11,3-26,6-35c4-11-8-22-48-39c-62-28-78-54-78-127&#xA;&#x9;&#x9;c0-40-3-50-16-50c-24,0-11-66,19-99c33-36,39-59,27-97c-12-37-38-49-78-39c-15,4-24,3-20-1s25-10,45-13l38-7l-27-18&#xA;&#x9;&#x9;c-17-11-35-15-48-11c-19,6-21,12-16,48c8,54,8,54,0,172c-8,119,11,210,55,265C7451.44,2240,7545.44,2274,7545.44,2231z&#xA;&#x9;&#x9; M7670.44,2230c39-24,75-89,109-198c43-138,88-202,152-218c20-5,22-9,12-21c-9-12-25-14-68-9c-39,5-61,3-74-7c-15-11-16-15-3-25&#xA;&#x9;&#x9;c8-7,32-18,53-26c34-12,39-17,36-41c-2-15,2-33,8-40c8-10-2-16-47-26c-50-12-58-18-61-39c-4-26-27-50-49-50c-10,0-12,9-8,33&#xA;&#x9;&#x9;c5,26,2,37-15,52c-27,25-50,68-50,94c0,11,14,49,32,83c26,52,32,74,32,128c0,65-24,154-52,198c-8,13-32,32-54,43&#xA;&#x9;&#x9;c-24,12-38,26-38,38c0,11-3,26-6,35C7570.44,2258,7630.44,2255,7670.44,2230z M6975.44,2216c0-13-7-29-15-36c-12-10-15-9-15,8&#xA;&#x9;&#x9;c0,27,10,52,21,52C6971.44,2240,6975.44,2229,6975.44,2216z M7575.44,2215c0-8-4-15-10-15c-5,0-10,7-10,15s5,15,10,15&#xA;&#x9;&#x9;C7571.44,2230,7575.44,2223,7575.44,2215z M7619.44,2147c48-27,74-74,88-159c13-81-2-140-47-185c-67-67-157-34-191,70&#xA;&#x9;&#x9;c-9,29-20,56-25,62c-10,10-10,117,0,155c4,17,23,33,61,52C7572.44,2175,7571.44,2175,7619.44,2147z M7142.44,2115&#xA;&#x9;&#x9;c17-48,10-167-14-226c-46-115-191-103-226,19c-10,32-20,48-33,51c-24,4-34,19-34,54c0,29,9,34,29,15c11-10,14-10,18-1&#xA;&#x9;&#x9;c2,7,16,36,31,65l27,53l53,1c29,0,55,4,59,8s23,6,42,4C7124.44,2155,7130.44,2150,7142.44,2115z M5898.44,2055c54-49,88-71,141-91&#xA;&#x9;&#x9;c90-34,131-58,181-105c46-44,110-74,175-83c51-6,69,3,94,52c14,26,22,32,49,32c41,0,134-27,143-41c12-20-7-59-35-73&#xA;&#x9;&#x9;c-30-16-40-35-66-128c-13-50-15-112-12-428l4-371l-33-29c-78-68-224-67-224,1c0,23,1,23-60,3c-46-15-56-15-142,1&#xA;&#x9;&#x9;c-151,28-177,29-199,10c-24-22-24-24-3,125c11,77,17,185,16,330c0,295-12,350-122,538c-28,48-29,53-12,47c27-8,52,28,52,75&#xA;&#x9;&#x9;c0,33-12,116-25,178c-3,12-3,22,1,22C5824.44,2120,5859.44,2091,5898.44,2055z M6583.44,2040c-10-30-25-46-34-37c-8,7,25,67,36,67&#xA;&#x9;&#x9;C6590.44,2070,6590.44,2057,6583.44,2040z M8804.44,1795l36,72c36,75,97,153,103,134 M8692.44,1989c-13-8-15-14-7-30&#xA;&#x9;&#x9;c14-24-5-26-19-2c-5,10-13,14-17,10s-2-13,4-19c24-24,11-31-14-7l-26,24l7-32c8-39-6-44-29-11c-23,32-20,57,7,62c12,3,31,7,42,9&#xA;&#x9;&#x9;c11,3,31,5,45,6C8707.44,1999,8708.44,1998,8692.44,1989z M7166.44,1933c-9-16-10-16-11-1c0,9,3,25,7,35c7,16,8,17,11,1&#xA;&#x9;&#x9;C7175.44,1958,7172.44,1943,7166.44,1933z M8720.44,1970c3-5,2-10-4-10c-5,0-13,5-16,10c-3,6-2,10,4,10&#xA;&#x9;&#x9;C8709.44,1980,8717.44,1976,8720.44,1970z M8565.44,1947c0-23-55-86-65-75c-7,7,45,98,56,98&#xA;&#x9;&#x9;C8561.44,1970,8565.44,1960,8565.44,1947z M7440.44,1910c6-22,5-23-8-10c-8,8-18,26-22,40c-6,22-5,23,8,10&#xA;&#x9;&#x9;C7426.44,1942,7436.44,1924,7440.44,1910z M6313.44,1878c36-39,82-45,132-19c22,11,40,16,40,11s-13-16-28-24c-16-8-34-22-41-30&#xA;&#x9;&#x9;c-28-33-115-14-169,36c-22,21-22,22-2,40c11,10,20,26,20,36c1,14,2,14,12-3C6283.44,1914,6299.44,1893,6313.44,1878z M7171.44,1854&#xA;&#x9;&#x9;c-4-18-11-34-16-34c-13,0-12,20,2,61C7171.44,1921,7180.44,1904,7171.44,1854z M7926.44,1871c26-27,38-51,23-51c-24,0-96,58-88,71&#xA;&#x9;&#x9;C7871.44,1908,7897.44,1900,7926.44,1871z M6998.44,1795c18-4,45-2,60,4c21,8,27,8,27-3c0-7,3-27,6-43c5-27,3-31-27-42&#xA;&#x9;&#x9;c-69-24-175-7-209,34c-8,10-5,19,15,39c14,14,25,34,25,44c0,31,9,31,41,1C6953.44,1813,6981.44,1798,6998.44,1795z M6466.44,1812&#xA;&#x9;&#x9;c-11-21-40-36-50-26c-3,3,7,17,23,30C6471.44,1844,6482.44,1842,6466.44,1812z M8415.44,1816c-14-7-36-17-50-20l-25-7l25,20&#xA;&#x9;&#x9;c14,11,36,20,50,20h25L8415.44,1816z M8005.44,1806c0-2-3-12-6-20c-5-13-9-14-20-5c-16,13-9,29,12,29&#xA;&#x9;&#x9;C7999.44,1810,8005.44,1808,8005.44,1806z M7293.44,1790c24,0,42-28,25-39c-6-3-14-25-18-48c-6-39-5-43,14-43c12,0,24,6,27,13&#xA;&#x9;&#x9;c3,9,16,12,34,9c24-3,36,2,59,27c16,17,32,45,36,61c4,17,8,30,10,30s20-9,39-21c48-28,98-28,136-1c34,26,35,25,15-14&#xA;&#x9;&#x9;c-24-46-18-84,20-138c27-39,32-52,24-67c-5-11-7-24-4-29c9-15,48-12,71,5c10,8,35,15,55,15c69,0,111,59,73,102c-14,15-15,20-3,34&#xA;&#x9;&#x9;c11,14,10,19-10,35c-13,11-30,19-38,19s-24,6-36,13c-19,11-12,13,58,18c50,3,84,1,92-5c9-9,7-29-7-90c-51-211-68-440-45-586&#xA;&#x9;&#x9;c9-58,19-138,22-177l6-73h-54c-30,0-87-9-128-20c-88-23-144-25-226-5c-33,8-88,15-122,15c-60,0-63,1-69,27c-4,15,1,93,10,174&#xA;&#x9;&#x9;c20,168,17,187-44,309c-46,93-57,129-64,205c-2,33-6,69-8,80c-2,16,2,20,25,18c22-2,27,2,23,13c-3,9-6,33-6,55c0,52-18,50-27-3&#xA;&#x9;&#x9;l-8-43l-5,44c-7,62-30,67-30,7c0-59-16-60-24-1c-8,50-11,52-38,28c-23-21-37-8-15,15c22,21,85,42,112,36&#xA;&#x9;&#x9;C7261.44,1792,7280.44,1790,7293.44,1790z M6633.44,1701c-7-12-16-21-21-21c-4,0,0,11,9,25C6641.44,1735,6652.44,1731,6633.44,1701&#xA;&#x9;&#x9;z M8004.44,1279c1-264,5-417,12-437c9-25,8-36-5-54c-9-12-16-40-16-61s-4-36-9-33c-10,6-21,80-26,176c-2,36-11,110-20,165&#xA;&#x9;&#x9;s-17,147-17,205c0,167,54,512,73,465C8000.44,1694,8004.44,1502,8004.44,1279z M7241.44,1564c6-47-10-27-21,26c-5,26-4,32,4,24&#xA;&#x9;&#x9;C7231.44,1608,7238.44,1586,7241.44,1564z M7915.44,1605c0-16-49-45-78-45c-11,0-25,7-32,15c-14,16-6,21,54,35&#xA;&#x9;&#x9;C7907.44,1622,7915.44,1621,7915.44,1605z M6685.44,1545c0-45-21-145-31-145c-8,0-23,96-22,148c1,18,7,40,14,48c12,14,14,14,26-2&#xA;&#x9;&#x9;C6679.44,1584,6685.44,1562,6685.44,1545z M6582.44,1493c-2-16-4-5-4,22c0,28,2,40,4,28C6584.44,1530,6584.44,1508,6582.44,1493z&#xA;&#x9;&#x9; M7311.44,1323l46-98l-8-115c-4-63-8-155-9-205c-1-73-6-97-23-125c-12-19-22-38-22-42s-5-19-11-35c-15-40-29-12-29,61&#xA;&#x9;&#x9;c0,40-5,65-16,77c-12,14-13,22-4,38c8,16,8,37-1,84c-17,94-15,219,6,345c11,61,20,112,22,112S7286.44,1376,7311.44,1323z&#xA;&#x9;&#x9; M6631.44,1340c19,0,24-9,34-62c21-111,24-305,6-378c-19-74-66-183-75-174c-3,3-6,45-6,92c-1,48-5,164-9,257c-10,182-2,295,17,276&#xA;&#x9;&#x9;C6604.44,1345,6619.44,1340,6631.44,1340z M7120.44,839c-79-23-328-37-370-19c-44,18,30,26,260,27&#xA;&#x9;&#x9;C7105.44,848,7141.44,845,7120.44,839z M8520.44,824c-101-39-378-59-442-33l-28,12l25,7c14,5,97,9,185,10c88,1,183,5,210,10&#xA;&#x9;&#x9;C8548.44,842,8563.44,840,8520.44,824z"></path>
</g>
</svg>