<svg viewBox="0 0 220 110" xmlns="http://www.w3.org/2000/svg">
  <path d="M 4,72 L 70,72 C 60,72 50,62 50,48 C 50,30 66,16 86,16 C 104,16 116,26 120,38 C 110,28 96,28 86,36 C 76,44 74,60 84,70 C 92,76 104,76 112,70 C 112,76 102,84 90,82 C 120,78 140,72 216,72" fill="none" stroke="currentColor" stroke-width="1.4" stroke-linecap="round" stroke-linejoin="round"></path>
  <path d="M 134,32 L 148,32 L 134,46 L 148,46" fill="none" stroke="currentColor" stroke-width="1.4" stroke-linecap="round" stroke-linejoin="round" stroke-opacity="0.35"></path>
</svg>